<?xml version="1.0" encoding="UTF-8" standalone="no"?>
<svg
   width="203"
   height="91"
   viewBox="0 0 203 91"
   fill="none"
   version="1.1"
   id="svg6"
   sodipodi:docname="hero-shape.svg"
   inkscape:version="1.3 (0e150ed, 2023-07-21)"
   xml:space="preserve"
   xmlns:inkscape="http://www.inkscape.org/namespaces/inkscape"
   xmlns:sodipodi="http://sodipodi.sourceforge.net/DTD/sodipodi-0.dtd"
   xmlns="http://www.w3.org/2000/svg"
   xmlns:svg="http://www.w3.org/2000/svg"><sodipodi:namedview
     id="namedview6"
     pagecolor="#ffffff"
     bordercolor="#000000"
     borderopacity="0.25"
     inkscape:showpageshadow="2"
     inkscape:pageopacity="0.0"
     inkscape:pagecheckerboard="0"
     inkscape:deskcolor="#d1d1d1"
     inkscape:zoom="3.3971323"
     inkscape:cx="139.67663"
     inkscape:cy="35.912643"
     inkscape:window-width="1366"
     inkscape:window-height="694"
     inkscape:window-x="0"
     inkscape:window-y="0"
     inkscape:window-maximized="1"
     inkscape:current-layer="svg6" /><rect
     width="169.93906"
     height="64.298119"
     rx="5.0228295"
     fill="white"
     id="rect1"
     style="fill:#d1d2d1;fill-opacity:0.93101728;stroke-width:0.769089"
     x="30.189215"
     y="19.499317"
     inkscape:label="rect1" /><g
     clip-path="url(#clip0_7_3)"
     id="g4"
     transform="translate(14,10)"><path
       d="m 47,67.5 c -12.1279,0 -22,-9.8721 -22,-22 0,-5.3604 1.9551,-10.5381 5.5,-14.5557 0.4727,-0.5371 1.2891,-0.5908 1.8262,-0.1181 0.5371,0.4726 0.5908,1.289 0.1181,1.8261 -3.1259,3.545 -4.8554,8.1104 -4.8554,12.8369 0,10.6993 8.7119,19.4112 19.4111,19.4112 10.6992,0 19.4111,-8.7119 19.4111,-19.4112 C 66.4111,34.79 57.6992,26.0889 47,26.0889 c -2.9326,-0.0108 -5.8223,0.6552 -8.4541,1.9336 -0.6445,0.3115 -1.418,0.0429 -1.7295,-0.6016 -0.3115,-0.6445 -0.043,-1.418 0.6016,-1.7295 2.9863,-1.4502 6.2627,-2.2022 9.582,-2.1914 12.1279,0 22,9.8721 22,22 0,12.1279 -9.8721,22 -22,22 z"
       fill="#36496d"
       id="path1" /><path
       d="m 62.5332,45.5 c 0,8.5723 -6.9502,15.5332 -15.5332,15.5332 -8.583,0 -15.5332,-6.9609 -15.5332,-15.5332 0,-8.5723 6.9609,-15.5332 15.5332,-15.5332 8.5723,0 15.5332,6.9609 15.5332,15.5332 z"
       fill="#e3a6b6"
       id="path2" /><path
       d="m 47,62.3223 c -9.2813,0 -16.8223,-7.5411 -16.8223,-16.8223 0,-9.2813 7.541,-16.8223 16.8223,-16.8223 9.2812,0 16.8223,7.541 16.8223,16.8223 0,9.2812 -7.5411,16.8223 -16.8223,16.8223 z m 0,-31.0557 c -7.8525,0 -14.2334,6.3809 -14.2334,14.2334 0,7.8525 6.3809,14.2334 14.2334,14.2334 7.8525,0 14.2334,-6.3916 14.2334,-14.2334 0,-7.8418 -6.3809,-14.2334 -14.2334,-14.2334 z"
       fill="#36496d"
       id="path3" /><path
       d="m 46.5811,50.001 c -0.9454,0 -1.8477,-0.376 -2.5245,-1.042 l -3.4804,-3.4912 c -0.5049,-0.5049 -0.5049,-1.3213 0,-1.8262 0.5049,-0.5049 1.3213,-0.5049 1.8261,0 l 3.4913,3.4912 c 0.3867,0.376 0.999,0.376 1.375,0 l 5.3496,-5.3603 c 0.5048,-0.5049 1.3213,-0.5049 1.8261,0 0.5049,0.5048 0.5049,1.3212 0,1.8261 l -5.3388,5.3604 c -0.666,0.666 -1.5791,1.042 -2.5244,1.042 z"
       fill="#36496d"
       id="path4" /></g><path
     d="m 91.1,56.978 v -2.31 l 6.776,-6.039 c 0.528,-0.4693 0.8947,-0.913 1.1,-1.331 0.2053,-0.418 0.308,-0.8213 0.308,-1.21 0,-0.528 -0.1137,-0.9973 -0.341,-1.408 -0.2273,-0.418 -0.5427,-0.748 -0.946,-0.99 -0.396,-0.242 -0.8543,-0.363 -1.375,-0.363 -0.55,0 -1.0377,0.1283 -1.463,0.385 -0.418,0.2493 -0.7443,0.583 -0.979,1.001 -0.2347,0.418 -0.3447,0.869 -0.33,1.353 h -2.728 c 0,-1.056 0.2347,-1.9763 0.704,-2.761 0.4767,-0.7847 1.1293,-1.3933 1.958,-1.826 0.836,-0.4327 1.8003,-0.649 2.893,-0.649 1.012,0 1.9213,0.2273 2.728,0.682 0.8067,0.4473 1.441,1.0707 1.903,1.87 0.462,0.792 0.693,1.705 0.693,2.739 0,0.7553 -0.1027,1.3897 -0.308,1.903 -0.2053,0.5133 -0.5133,0.9863 -0.924,1.419 -0.4033,0.4327 -0.9057,0.913 -1.507,1.441 l -4.807,4.257 -0.242,-0.66 h 7.788 v 2.497 z m 18.242,0.352 c -0.806,0 -1.558,-0.165 -2.255,-0.495 -0.696,-0.3373 -1.2975,-0.7993 -1.8035,-1.386 -0.4987,-0.5867 -0.858,-1.2687 -1.078,-2.046 l 2.5515,-0.682 c 0.103,0.4253 0.29,0.792 0.561,1.1 0.279,0.308 0.602,0.5463 0.968,0.715 0.374,0.1687 0.759,0.253 1.155,0.253 0.514,0 0.983,-0.1247 1.408,-0.374 0.426,-0.2493 0.763,-0.583 1.012,-1.001 0.25,-0.4253 0.374,-0.8947 0.374,-1.408 0,-0.5133 -0.128,-0.979 -0.385,-1.397 -0.249,-0.4253 -0.586,-0.759 -1.012,-1.001 -0.425,-0.2493 -0.891,-0.374 -1.397,-0.374 -0.608,0 -1.114,0.11 -1.518,0.33 -0.396,0.22 -0.7,0.4547 -0.913,0.704 l -2.2655,-0.726 0.484,-8.382 h 8.6015 v 2.486 h -7.183 l 0.99,-0.935 -0.352,5.83 -0.484,-0.594 c 0.411,-0.374 0.888,-0.6527 1.43,-0.836 0.543,-0.1833 1.067,-0.275 1.573,-0.275 0.99,0 1.867,0.2273 2.629,0.682 0.77,0.4473 1.372,1.0597 1.804,1.837 0.44,0.7773 0.66,1.661 0.66,2.651 0,0.99 -0.256,1.8883 -0.77,2.695 -0.513,0.7993 -1.191,1.4373 -2.035,1.914 -0.836,0.4767 -1.752,0.715 -2.75,0.715 z m 13.892,0 c -1.122,0 -2.112,-0.2383 -2.97,-0.715 -0.858,-0.484 -1.529,-1.155 -2.013,-2.013 -0.477,-0.858 -0.715,-1.848 -0.715,-2.97 v -5.104 c 0,-1.122 0.238,-2.112 0.715,-2.97 0.484,-0.858 1.155,-1.5253 2.013,-2.002 0.858,-0.484 1.848,-0.726 2.97,-0.726 1.122,0 2.108,0.242 2.959,0.726 0.858,0.4767 1.529,1.144 2.013,2.002 0.484,0.858 0.726,1.848 0.726,2.97 v 5.104 c 0,1.122 -0.242,2.112 -0.726,2.97 -0.484,0.858 -1.155,1.529 -2.013,2.013 -0.851,0.4767 -1.837,0.715 -2.959,0.715 z m 0,-2.519 c 0.557,0 1.063,-0.132 1.518,-0.396 0.455,-0.2713 0.814,-0.6307 1.078,-1.078 0.264,-0.4547 0.396,-0.9607 0.396,-1.518 V 46.33 c 0,-0.5647 -0.132,-1.0707 -0.396,-1.518 -0.264,-0.4547 -0.623,-0.814 -1.078,-1.078 -0.455,-0.2713 -0.961,-0.407 -1.518,-0.407 -0.557,0 -1.063,0.1357 -1.518,0.407 -0.455,0.264 -0.814,0.6233 -1.078,1.078 -0.264,0.4473 -0.396,0.9533 -0.396,1.518 v 5.489 c 0,0.5573 0.132,1.0633 0.396,1.518 0.264,0.4473 0.623,0.8067 1.078,1.078 0.455,0.264 0.961,0.396 1.518,0.396 z m 12.501,-0.759 v -3.938 h -3.938 v -2.079 h 3.938 v -3.927 h 2.079 v 3.927 h 3.916 v 2.079 h -3.916 v 3.938 z"
     fill="#343f52"
     id="path5"
     inkscape:label="path5"
     style="display:inline" /><path
     d="M 91.98,73 V 62.92 h 3.892 c 0.098,0 0.2077,0.0047 0.329,0.014 0.126,0.0047 0.252,0.0187 0.378,0.042 0.5273,0.0793 0.973,0.2637 1.337,0.553 0.3687,0.2847 0.6463,0.644 0.833,1.078 0.1913,0.434 0.287,0.9147 0.287,1.442 0,0.5227 -0.0957,1.001 -0.287,1.435 -0.1913,0.434 -0.4713,0.7957 -0.84,1.085 -0.364,0.2847 -0.8073,0.4667 -1.33,0.546 -0.126,0.0187 -0.252,0.0327 -0.378,0.042 -0.1213,0.0093 -0.231,0.014 -0.329,0.014 H 93.009 V 73 Z m 1.029,-4.809 h 2.835 c 0.084,0 0.182,-0.0047 0.294,-0.014 0.112,-0.0093 0.2217,-0.0257 0.329,-0.049 0.3453,-0.0747 0.6277,-0.217 0.847,-0.427 0.224,-0.21 0.3897,-0.4597 0.497,-0.749 0.112,-0.2893 0.168,-0.5903 0.168,-0.903 0,-0.3127 -0.056,-0.6137 -0.168,-0.903 C 97.7037,64.852 97.538,64.6 97.314,64.39 97.0947,64.18 96.8123,64.0377 96.467,63.963 96.3597,63.9397 96.25,63.9257 96.138,63.921 96.026,63.9117 95.928,63.907 95.844,63.907 H 93.009 Z M 100.5692,73 v -7.56 h 0.924 v 1.82 l -0.182,-0.238 c 0.084,-0.224 0.1937,-0.4293 0.329,-0.616 0.1354,-0.1913 0.2824,-0.3477 0.441,-0.469 0.196,-0.1727 0.4247,-0.3033 0.686,-0.392 0.2614,-0.0933 0.525,-0.147 0.791,-0.161 0.266,-0.0187 0.5087,0 0.728,0.056 v 0.966 c -0.2753,-0.07 -0.5763,-0.0863 -0.903,-0.049 -0.3266,0.0373 -0.6276,0.168 -0.903,0.392 -0.252,0.196 -0.441,0.4317 -0.567,0.707 -0.126,0.2707 -0.21,0.56 -0.252,0.868 -0.042,0.3033 -0.063,0.6043 -0.063,0.903 V 73 Z m 8.2048,0.21 c -0.751,0 -1.393,-0.1703 -1.925,-0.511 -0.532,-0.3407 -0.9399,-0.812 -1.2246,-1.414 -0.2846,-0.602 -0.427,-1.2927 -0.427,-2.072 0,-0.7933 0.1447,-1.4887 0.434,-2.086 0.2894,-0.5973 0.6996,-1.0617 1.2316,-1.393 0.537,-0.336 1.174,-0.504 1.911,-0.504 0.756,0 1.4,0.1703 1.932,0.511 0.537,0.336 0.945,0.805 1.225,1.407 0.285,0.5973 0.427,1.2857 0.427,2.065 0,0.7933 -0.142,1.491 -0.427,2.093 -0.284,0.5973 -0.695,1.064 -1.232,1.4 -0.536,0.336 -1.178,0.504 -1.925,0.504 z m 0,-0.987 c 0.84,0 1.466,-0.2777 1.876,-0.833 0.411,-0.56 0.616,-1.2857 0.616,-2.177 0,-0.9147 -0.207,-1.6427 -0.623,-2.184 -0.41,-0.5413 -1.033,-0.812 -1.869,-0.812 -0.564,0 -1.031,0.1283 -1.4,0.385 -0.364,0.252 -0.637,0.6043 -0.819,1.057 -0.177,0.448 -0.266,0.966 -0.266,1.554 0,0.91 0.21,1.6403 0.63,2.191 0.42,0.546 1.039,0.819 1.855,0.819 z m 4.149,4.137 v -0.994 h 0.427 c 0.34,0 0.611,-0.0887 0.812,-0.266 0.205,-0.1727 0.308,-0.4643 0.308,-0.875 V 65.44 h 1.022 v 9.044 c 0,0.63 -0.152,1.099 -0.455,1.407 -0.299,0.3127 -0.759,0.469 -1.379,0.469 z M 114.47,64.005 V 62.85 h 1.022 v 1.155 z m 6.425,9.205 c -0.737,0 -1.376,-0.1633 -1.918,-0.49 -0.536,-0.3267 -0.954,-0.7863 -1.253,-1.379 -0.298,-0.5927 -0.448,-1.288 -0.448,-2.086 0,-0.826 0.147,-1.54 0.441,-2.142 0.294,-0.602 0.707,-1.0663 1.239,-1.393 0.537,-0.3267 1.169,-0.49 1.897,-0.49 0.747,0 1.384,0.1727 1.911,0.518 0.528,0.3407 0.927,0.8307 1.197,1.47 0.271,0.6393 0.395,1.4023 0.371,2.289 h -1.05 v -0.364 c -0.018,-0.98 -0.231,-1.7197 -0.637,-2.219 -0.401,-0.4993 -0.989,-0.749 -1.764,-0.749 -0.812,0 -1.435,0.2637 -1.869,0.791 -0.429,0.5273 -0.644,1.2787 -0.644,2.254 0,0.952 0.215,1.6917 0.644,2.219 0.434,0.5227 1.048,0.784 1.841,0.784 0.542,0 1.013,-0.1237 1.414,-0.371 0.406,-0.252 0.726,-0.6137 0.959,-1.085 l 0.959,0.371 c -0.298,0.658 -0.739,1.169 -1.323,1.533 -0.578,0.3593 -1.234,0.539 -1.967,0.539 z m -2.891,-3.703 v -0.861 h 5.775 v 0.861 z m 11.158,3.703 c -0.761,0 -1.405,-0.1703 -1.932,-0.511 -0.528,-0.3407 -0.929,-0.8097 -1.204,-1.407 -0.271,-0.602 -0.411,-1.2927 -0.42,-2.072 0.009,-0.7933 0.154,-1.4887 0.434,-2.086 0.28,-0.602 0.683,-1.0687 1.211,-1.4 0.527,-0.336 1.166,-0.504 1.918,-0.504 0.765,0 1.43,0.1867 1.995,0.56 0.569,0.3733 0.959,0.8843 1.169,1.533 l -1.008,0.322 c -0.178,-0.4527 -0.46,-0.8027 -0.847,-1.05 -0.383,-0.252 -0.822,-0.378 -1.316,-0.378 -0.556,0 -1.015,0.1283 -1.379,0.385 -0.364,0.252 -0.635,0.6043 -0.812,1.057 -0.178,0.4527 -0.269,0.973 -0.273,1.561 0.009,0.9053 0.219,1.6333 0.63,2.184 0.41,0.546 1.022,0.819 1.834,0.819 0.513,0 0.949,-0.1167 1.309,-0.35 0.364,-0.238 0.639,-0.5833 0.826,-1.036 l 1.036,0.308 c -0.28,0.672 -0.691,1.1853 -1.232,1.54 -0.542,0.35 -1.188,0.525 -1.939,0.525 z M 138.034,73 c -0.425,0.0887 -0.845,0.1237 -1.26,0.105 -0.411,-0.0187 -0.78,-0.1073 -1.106,-0.266 -0.322,-0.1587 -0.567,-0.406 -0.735,-0.742 -0.136,-0.28 -0.21,-0.5623 -0.224,-0.847 -0.01,-0.2893 -0.014,-0.6183 -0.014,-0.987 V 63.34 h 1.022 v 6.881 c 0,0.3173 0.002,0.5833 0.007,0.798 0.009,0.21 0.058,0.3967 0.147,0.56 0.168,0.3127 0.434,0.4993 0.798,0.56 0.368,0.0607 0.823,0.0467 1.365,-0.042 z m -4.956,-6.678 V 65.44 h 4.956 v 0.882 z m 9.406,6.881 c -0.887,0 -1.617,-0.1913 -2.191,-0.574 -0.569,-0.3827 -0.919,-0.9147 -1.05,-1.596 l 1.05,-0.175 c 0.112,0.4293 0.366,0.7723 0.763,1.029 0.401,0.252 0.896,0.378 1.484,0.378 0.574,0 1.027,-0.119 1.358,-0.357 0.331,-0.2427 0.497,-0.5717 0.497,-0.987 0,-0.2333 -0.054,-0.4223 -0.161,-0.567 -0.103,-0.1493 -0.315,-0.287 -0.637,-0.413 -0.322,-0.126 -0.803,-0.2753 -1.442,-0.448 -0.686,-0.1867 -1.223,-0.3733 -1.61,-0.56 -0.387,-0.1867 -0.663,-0.4013 -0.826,-0.644 -0.163,-0.2473 -0.245,-0.5483 -0.245,-0.903 0,-0.4293 0.121,-0.805 0.364,-1.127 0.243,-0.3267 0.579,-0.5787 1.008,-0.756 0.429,-0.182 0.929,-0.273 1.498,-0.273 0.569,0 1.078,0.0933 1.526,0.28 0.453,0.182 0.817,0.4387 1.092,0.77 0.275,0.3313 0.439,0.7163 0.49,1.155 l -1.05,0.189 c -0.07,-0.4433 -0.292,-0.7933 -0.665,-1.05 -0.369,-0.2613 -0.838,-0.3967 -1.407,-0.406 -0.537,-0.014 -0.973,0.0887 -1.309,0.308 -0.336,0.2147 -0.504,0.5017 -0.504,0.861 0,0.2007 0.061,0.3733 0.182,0.518 0.121,0.14 0.341,0.273 0.658,0.399 0.322,0.126 0.779,0.2637 1.372,0.413 0.695,0.1773 1.241,0.364 1.638,0.56 0.397,0.196 0.679,0.427 0.847,0.693 0.168,0.266 0.252,0.595 0.252,0.987 0,0.714 -0.266,1.2763 -0.798,1.687 -0.527,0.406 -1.255,0.609 -2.184,0.609 z M 150.101,73 V 62.92 h 3.059 c 0.108,0 0.29,0.0023 0.546,0.007 0.262,0.0047 0.511,0.0233 0.749,0.056 0.766,0.1073 1.405,0.392 1.918,0.854 0.514,0.462 0.899,1.05 1.155,1.764 0.257,0.714 0.385,1.5003 0.385,2.359 0,0.8587 -0.128,1.645 -0.385,2.359 -0.256,0.714 -0.641,1.302 -1.155,1.764 -0.513,0.462 -1.152,0.7467 -1.918,0.854 -0.233,0.028 -0.483,0.0467 -0.749,0.056 C 153.44,72.9977 153.258,73 153.16,73 Z m 1.064,-0.987 h 1.995 c 0.192,0 0.397,-0.0047 0.616,-0.014 0.224,-0.014 0.416,-0.0373 0.574,-0.07 0.588,-0.1027 1.062,-0.3407 1.421,-0.714 0.364,-0.3733 0.63,-0.84 0.798,-1.4 0.168,-0.5647 0.252,-1.183 0.252,-1.855 0,-0.6767 -0.084,-1.2973 -0.252,-1.862 -0.168,-0.5647 -0.434,-1.0313 -0.798,-1.4 -0.364,-0.3687 -0.837,-0.6043 -1.421,-0.707 -0.158,-0.0327 -0.352,-0.0537 -0.581,-0.063 -0.224,-0.014 -0.427,-0.021 -0.609,-0.021 h -1.995 z m 11.64,1.197 c -0.752,0 -1.393,-0.1703 -1.925,-0.511 -0.532,-0.3407 -0.941,-0.812 -1.225,-1.414 -0.285,-0.602 -0.427,-1.2927 -0.427,-2.072 0,-0.7933 0.144,-1.4887 0.434,-2.086 0.289,-0.5973 0.7,-1.0617 1.232,-1.393 0.536,-0.336 1.173,-0.504 1.911,-0.504 0.756,0 1.4,0.1703 1.932,0.511 0.536,0.336 0.945,0.805 1.225,1.407 0.284,0.5973 0.427,1.2857 0.427,2.065 0,0.7933 -0.143,1.491 -0.427,2.093 -0.285,0.5973 -0.696,1.064 -1.232,1.4 -0.537,0.336 -1.179,0.504 -1.925,0.504 z m 0,-0.987 c 0.84,0 1.465,-0.2777 1.876,-0.833 0.41,-0.56 0.616,-1.2857 0.616,-2.177 0,-0.9147 -0.208,-1.6427 -0.623,-2.184 -0.411,-0.5413 -1.034,-0.812 -1.869,-0.812 -0.565,0 -1.032,0.1283 -1.4,0.385 -0.364,0.252 -0.637,0.6043 -0.819,1.057 -0.178,0.448 -0.266,0.966 -0.266,1.554 0,0.91 0.21,1.6403 0.63,2.191 0.42,0.546 1.038,0.819 1.855,0.819 z M 173.533,73 v -3.857 c 0,-0.42 -0.04,-0.805 -0.119,-1.155 -0.08,-0.3547 -0.208,-0.6627 -0.385,-0.924 -0.173,-0.266 -0.399,-0.4713 -0.679,-0.616 -0.276,-0.1447 -0.612,-0.217 -1.008,-0.217 -0.364,0 -0.686,0.063 -0.966,0.189 -0.276,0.126 -0.509,0.308 -0.7,0.546 -0.187,0.2333 -0.329,0.518 -0.427,0.854 -0.098,0.336 -0.147,0.7187 -0.147,1.148 l -0.728,-0.161 c 0,-0.7747 0.135,-1.4257 0.406,-1.953 0.27,-0.5273 0.644,-0.9263 1.12,-1.197 0.476,-0.2707 1.022,-0.406 1.638,-0.406 0.452,0 0.847,0.07 1.183,0.21 0.34,0.14 0.627,0.329 0.861,0.567 0.238,0.238 0.429,0.511 0.574,0.819 0.144,0.3033 0.249,0.6277 0.315,0.973 0.065,0.3407 0.098,0.6813 0.098,1.022 V 73 Z m -5.467,0 v -7.56 h 0.931 v 1.862 h 0.105 V 73 Z m 11.617,0.21 c -0.737,0 -1.376,-0.1633 -1.918,-0.49 -0.536,-0.3267 -0.954,-0.7863 -1.253,-1.379 -0.298,-0.5927 -0.448,-1.288 -0.448,-2.086 0,-0.826 0.147,-1.54 0.441,-2.142 0.294,-0.602 0.707,-1.0663 1.239,-1.393 0.537,-0.3267 1.169,-0.49 1.897,-0.49 0.747,0 1.384,0.1727 1.911,0.518 0.528,0.3407 0.927,0.8307 1.197,1.47 0.271,0.6393 0.395,1.4023 0.371,2.289 h -1.05 v -0.364 c -0.018,-0.98 -0.231,-1.7197 -0.637,-2.219 -0.401,-0.4993 -0.989,-0.749 -1.764,-0.749 -0.812,0 -1.435,0.2637 -1.869,0.791 -0.429,0.5273 -0.644,1.2787 -0.644,2.254 0,0.952 0.215,1.6917 0.644,2.219 0.434,0.5227 1.048,0.784 1.841,0.784 0.542,0 1.013,-0.1237 1.414,-0.371 0.406,-0.252 0.726,-0.6137 0.959,-1.085 l 0.959,0.371 c -0.298,0.658 -0.739,1.169 -1.323,1.533 -0.578,0.3593 -1.234,0.539 -1.967,0.539 z m -2.891,-3.703 v -0.861 h 5.775 v 0.861 z"
     fill="#60697b"
     id="path6"
     inkscape:label="path6" /><defs
     id="defs6"><clipPath
       id="clip0_7_3"><rect
         width="44"
         height="44"
         fill="white"
         transform="translate(25 23.5)"
         id="rect6" /></clipPath><clipPath
       id="clip0_7_3-5"><rect
         width="44"
         height="44"
         fill="white"
         transform="translate(25 23.5)"
         id="rect6-3" /></clipPath><linearGradient
       id="linearGradient6-5"
       x1="57.768"
       x2="102.55"
       y1="97.587"
       y2="97.587"
       gradientTransform="matrix(2.398841,-0.21095614,0.3427721,3.8977571,47.050788,-190.21617)"
       gradientUnits="userSpaceOnUse"><stop
         stop-color="#6b004c"
         stop-opacity=".71706"
         offset="0"
         id="stop1"
         style="stop-color:#6b004c;stop-opacity:0.60340875;" /><stop
         stop-color="#4c006a"
         stop-opacity=".95035"
         offset="1"
         id="stop2" /></linearGradient></defs></svg>
